<svg width="18" height="20" viewBox="0 0 18 20" fill="none" xmlns="http://www.w3.org/2000/svg">
<path d="M17.9962 9.25006V13.9111L8.54997 3.99142C8.34019 3.76645 8.14312 3.661 7.93333 3.661C7.69177 3.661 7.44388 3.79458 7.15145 4.02657L0 10.1569V7.31673L8.11133 0.370843C8.41008 0.131815 8.66435 -0.00176118 8.90591 0.00526907C9.10937 0.0122993 9.30639 0.110724 9.50985 0.335691L17.9962 9.25006Z" fill="#EA0000"/>
<path d="M17.9962 16.3773V19.9998H16.9601L6.98616 9.58002C6.80184 9.38423 6.63017 9.27936 6.44584 9.25837C6.1852 9.22338 5.91185 9.35629 5.58764 9.61501L0 14.3773V11.5241L6.5666 5.92967C6.89081 5.67089 7.17054 5.53803 7.43113 5.57302C7.60912 5.59397 7.78712 5.69889 7.96512 5.89468L17.9962 16.3773Z" fill="#EA0000"/>
<path d="M14.6078 19.9997H10.1771L5.51765 15.1173C5.33332 14.9209 5.15532 14.8157 4.97097 14.7947C4.71035 14.7666 4.43701 14.8999 4.11281 15.1524L0 18.6669V15.8118L5.05361 11.4907C5.39051 11.2241 5.67024 11.0908 5.94353 11.1399C6.1152 11.168 6.28682 11.2732 6.45844 11.4556L14.6078 19.9997Z" fill="#EA0000"/>
<path d="M7.83077 19.9998H0.150391L3.59202 17.0547C3.91467 16.7959 4.19304 16.6629 4.45875 16.6979C4.63589 16.7189 4.81303 16.8239 4.99018 17.0197L7.83077 19.9998Z" fill="#EA0000"/>
</svg>
