<?xml version="1.0" encoding="UTF-8"?> <!-- Generator: Adobe Illustrator 26.1.0, SVG Export Plug-In . SVG Version: 6.00 Build 0) --> <svg xmlns="http://www.w3.org/2000/svg" xmlns:xlink="http://www.w3.org/1999/xlink" id="Layer_1" x="0px" y="0px" viewBox="0 0 32 32" style="enable-background:new 0 0 32 32;" xml:space="preserve"> <style type="text/css"> .st0{fill:#EA0000;} </style> <path class="st0" d="M30.5,15v7.5l-15.2-16c-0.3-0.4-0.7-0.5-1-0.5c-0.4,0-0.8,0.2-1.3,0.6L1.5,16.4v-4.6L14.6,0.7 c0.5-0.4,0.9-0.6,1.3-0.6c0.3,0,0.6,0.2,1,0.5L30.5,15z"></path> <path class="st0" d="M30.5,26.3V32h-1.7L12.8,15.5c-0.3-0.3-0.6-0.5-0.9-0.5c-0.4-0.1-0.9,0.2-1.4,0.6l-9,7.5v-4.5l10.6-8.9 c0.5-0.4,1-0.6,1.4-0.6c0.3,0,0.6,0.2,0.9,0.5L30.5,26.3z"></path> <path class="st0" d="M24.8,32h-7.1l-7.4-7.9c-0.3-0.3-0.6-0.5-0.9-0.5c-0.4,0-0.9,0.2-1.4,0.6l-6.6,5.7v-4.6l8.1-7 c0.5-0.4,1-0.6,1.4-0.6c0.3,0,0.5,0.2,0.8,0.5L24.8,32z"></path> <path class="st0" d="M14.3,32H1.5l5.8-4.7c0.5-0.4,1-0.6,1.4-0.6c0.3,0,0.6,0.2,0.9,0.5L14.3,32z"></path> </svg> 